<svg id="Capa_4" data-name="Capa 4" xmlns="http://www.w3.org/2000/svg" viewBox="0 0 512 512"><defs><style>.cls-1{fill:none;stroke:#fff;stroke-miterlimit:10;}.cls-2{fill:#fff;}</style></defs><path class="cls-1" d="M256.26,257.13a20.29,20.29,0,0,1-1.61,3.11Z"/><path class="cls-1" d="M293.07,226.06H272.28l-11.37,22a27,27,0,0,1-1.83,10,22.66,22.66,0,0,1-2.05,4,22,22,0,0,1-6.77,6.65h0L249.6,270l1.83,3,5.57,9,1.85,3,5.9-11.73H300.6L307,285.94h17Zm-22.58,35.68,12.22-24.3,12.16,24.3Z"/><path class="cls-1" d="M254.63,260.28l0,0,1.61-3.11a23.85,23.85,0,0,0,1.68-9.08c0-.21,0-.43,0-.64-.3-13-9.54-21.35-22.92-21.35H188v59.88h15.4V270h24.81l9.67,16H256l-1.84-3-4.29-6.91L248,273.11l-1.82-2.95-1.25-2a20.17,20.17,0,0,0,3.06-1.49A19.12,19.12,0,0,0,254.63,260.28ZM230.74,257H203.36V239h27.38c4.62,0,11.8,0,11.8,9.08S235.36,257,230.74,257Z"/><path class="cls-1" d="M256.26,321a20.4,20.4,0,0,1-1.61,3.12Z"/><path class="cls-1" d="M293.07,289.89H272.28l-11.37,22a26.94,26.94,0,0,1-1.83,10,22.1,22.1,0,0,1-8.82,10.64h0l-.64,1.25,1.83,2.94,5.57,9,1.85,3,5.9-11.73H300.6L307,349.77h17Zm-22.58,35.67,12.22-24.29,12.16,24.29Z"/><path class="cls-1" d="M254.63,324.1l0,0,1.61-3.12a23.76,23.76,0,0,0,1.68-9.07c0-.22,0-.43,0-.64-.3-13-9.54-21.35-22.92-21.35H188v59.88h15.4v-16h24.81l9.67,16H256l-1.84-3-4.29-6.92L248,336.93,246.19,334l-1.25-2a21.19,21.19,0,0,0,3.06-1.5A19,19,0,0,0,254.63,324.1Zm-23.89-3.24H203.36V302.8h27.38c4.62,0,11.8,0,11.8,9.08S235.36,320.86,230.74,320.86Z"/><path class="cls-2" d="M256.26,193.3a20.4,20.4,0,0,1-1.61,3.12Z"/><path class="cls-2" d="M293.07,162.23H272.28l-11.37,22a26.94,26.94,0,0,1-1.83,10A22.1,22.1,0,0,1,250.26,205s0,0,0,0l-.64,1.25,1.83,2.94,5.57,9,1.85,2.95,5.9-11.72H300.6L307,222.11h17Zm-22.58,35.68,12.22-24.29,12.16,24.29Z"/><path class="cls-2" d="M254.63,196.45l0,0,1.61-3.12a23.76,23.76,0,0,0,1.68-9.07c0-.22,0-.43,0-.65-.3-13-9.54-21.35-22.92-21.35H188v59.88h15.4v-16h24.81l9.67,16H256l-1.84-3-4.29-6.91L248,209.28l-1.82-2.94-1.25-2a21.19,21.19,0,0,0,3.06-1.5A19,19,0,0,0,254.63,196.45Zm-23.89-3.24H203.36V175.15h27.38c4.62,0,11.8,0,11.8,9.08S235.36,193.21,230.74,193.21Z"/></svg>